<?xml version="1.0" standalone="no"?>
<!DOCTYPE svg PUBLIC "-//W3C//DTD SVG 20010904//EN"
 "http://www.w3.org/TR/2001/REC-SVG-20010904/DTD/svg10.dtd">
<svg version="1.0" xmlns="http://www.w3.org/2000/svg"
 width="2472.000000pt" height="800.000000pt" viewBox="0 0 2472.000000 800.000000"
 preserveAspectRatio="xMidYMid meet">
<metadata>
Created by potrace 1.16, written by Peter Selinger 2001-2019
</metadata>
<g transform="translate(0.000000,800.000000) scale(0.100000,-0.100000)"
fill="#000000" stroke="none">
<path d="M12815 6601 c-44 -10 -87 -20 -95 -23 -8 -4 -22 -6 -30 -6 -8 0 -42
-9 -75 -20 -86 -29 -148 -46 -162 -43 -6 1 -14 -3 -18 -9 -3 -5 -18 -10 -33
-10 -15 0 -38 -7 -50 -16 -12 -8 -27 -12 -32 -9 -5 3 -22 0 -37 -9 -16 -8 -81
-29 -145 -47 -65 -18 -118 -38 -118 -43 0 -6 -4 -5 -9 3 -7 11 -13 12 -23 4
-7 -6 -40 -17 -73 -26 -33 -8 -100 -27 -150 -42 -49 -15 -105 -30 -123 -32
-18 -3 -35 -9 -38 -14 -3 -5 -15 -9 -26 -9 -22 0 -43 -6 -268 -80 -207 -68
-356 -122 -412 -151 -10 -5 -23 -9 -30 -9 -14 0 -178 -60 -243 -89 -106 -48
-192 -81 -208 -81 -9 0 -40 -11 -69 -25 -28 -14 -57 -25 -64 -25 -6 0 -33 -9
-60 -21 -81 -34 -128 -52 -204 -76 -25 -8 -58 -21 -73 -29 -16 -7 -37 -14 -47
-14 -10 0 -21 -4 -25 -9 -3 -5 -29 -17 -58 -26 -28 -9 -61 -20 -72 -25 -11 -5
-45 -19 -75 -31 -30 -11 -59 -24 -65 -29 -5 -4 -28 -13 -50 -20 -22 -7 -49
-19 -60 -26 -11 -6 -36 -15 -55 -19 -19 -4 -42 -13 -50 -19 -8 -7 -40 -20 -70
-30 -30 -11 -74 -30 -98 -43 -23 -12 -50 -23 -60 -23 -9 0 -30 -7 -46 -15 -15
-8 -32 -15 -37 -15 -20 0 -94 -63 -105 -88 -15 -36 -1 -62 34 -62 33 0 148 24
182 38 14 6 59 20 100 32 41 12 84 25 95 30 68 31 152 60 170 60 12 0 25 3 29
7 9 9 77 33 96 33 8 0 28 7 44 15 15 8 34 15 40 15 7 0 34 11 59 24 26 13 80
29 122 36 41 7 75 16 75 20 0 8 32 21 60 25 8 1 49 14 90 28 41 14 149 49 240
78 91 29 167 53 169 55 1 1 4 14 5 28 1 30 16 35 16 6 0 -25 44 -28 58 -5 7
14 30 19 110 24 13 0 22 7 22 17 0 10 6 14 14 11 17 -7 90 9 131 27 17 8 54
20 83 27 28 7 52 16 52 20 0 4 21 11 48 15 26 3 59 13 74 20 15 8 39 14 53 14
14 0 28 6 30 13 3 6 17 13 32 14 27 1 60 10 168 43 74 23 145 42 165 45 8 1
22 5 30 8 8 3 27 8 42 11 15 3 34 13 42 22 9 8 24 13 34 10 10 -3 49 3 86 13
38 11 75 17 82 14 6 -2 15 0 19 6 3 6 17 11 30 11 13 0 44 9 68 19 25 11 47
17 50 15 3 -3 22 -1 43 5 68 18 97 23 161 28 51 4 64 2 69 -10 7 -20 -5 -37
-84 -122 -34 -37 -62 -71 -62 -76 0 -5 -6 -9 -13 -9 -16 0 -117 -96 -117 -110
0 -6 -6 -10 -14 -10 -11 0 -42 -24 -106 -83 -8 -8 -27 -27 -41 -43 -40 -45
-96 -92 -118 -99 -12 -3 -21 -13 -21 -21 0 -8 -5 -14 -11 -14 -6 0 -28 -18
-49 -40 -21 -22 -42 -40 -47 -40 -5 0 -37 -28 -70 -62 -34 -35 -71 -70 -83
-78 -12 -8 -34 -25 -48 -38 -56 -49 -68 -59 -108 -90 -23 -18 -47 -32 -53 -32
-6 0 -11 -4 -11 -10 0 -5 -9 -10 -20 -10 -11 0 -20 -3 -20 -7 0 -12 -58 -44
-115 -65 -51 -19 -154 -36 -267 -45 -38 -3 -68 -10 -68 -15 0 -7 -4 -7 -12 0
-15 11 -313 24 -603 26 -110 0 -202 4 -205 7 -6 9 -162 19 -365 25 -303 9
-420 14 -490 24 -157 21 -925 35 -925 17 0 -9 -2 -9 -8 0 -10 15 -92 20 -457
28 -148 4 -299 8 -335 10 -500 26 -1623 37 -2405 23 -401 -7 -635 -20 -740
-42 -33 -7 -81 -11 -107 -9 -32 3 -48 1 -48 -6 0 -7 -9 -9 -23 -6 -31 8 -228
-14 -244 -27 -7 -5 -22 -7 -33 -3 -12 4 -61 2 -108 -5 -250 -33 -370 -51 -397
-60 -16 -4 -52 -13 -80 -18 -27 -5 -63 -14 -80 -20 -16 -6 -61 -15 -100 -21
-38 -5 -97 -17 -130 -25 -33 -8 -91 -22 -130 -31 -93 -21 -203 -54 -238 -71
-16 -8 -37 -14 -48 -14 -11 0 -22 -6 -25 -14 -3 -7 -26 -16 -51 -20 -25 -3
-51 -10 -57 -14 -6 -5 -31 -15 -56 -22 -25 -7 -71 -26 -102 -42 -32 -15 -62
-28 -67 -28 -15 0 -249 -116 -341 -170 -47 -27 -103 -59 -125 -71 -42 -23
-106 -67 -158 -110 -18 -14 -43 -32 -57 -39 -31 -16 -66 -42 -134 -100 -68
-58 -85 -71 -118 -92 -14 -10 -29 -27 -33 -38 -3 -11 -13 -20 -21 -20 -15 0
-114 -93 -114 -107 0 -5 -13 -14 -28 -21 -28 -12 -276 -272 -310 -324 -9 -15
-43 -60 -75 -102 -31 -41 -57 -78 -57 -81 0 -4 -11 -20 -25 -37 -14 -16 -28
-42 -32 -56 -3 -15 -20 -47 -36 -71 -25 -36 -28 -47 -18 -62 6 -11 7 -19 1
-19 -21 0 -50 -45 -50 -77 0 -18 -4 -33 -10 -33 -5 0 -10 -7 -10 -16 0 -9 -6
-30 -14 -47 -8 -18 -19 -59 -25 -92 -6 -33 -15 -85 -20 -115 -6 -30 -8 -63 -5
-72 3 -10 1 -18 -5 -18 -6 0 -8 -38 -5 -107 9 -195 21 -264 65 -365 63 -145
80 -181 99 -203 10 -11 21 -30 25 -42 3 -13 11 -23 16 -23 5 0 9 -8 9 -18 0
-10 11 -29 25 -42 14 -13 25 -28 25 -34 0 -6 14 -25 30 -43 17 -18 30 -37 30
-42 0 -6 9 -16 19 -23 11 -6 50 -47 87 -90 37 -43 73 -78 79 -78 6 0 29 -14
52 -30 22 -17 55 -33 72 -36 28 -6 31 -4 31 19 0 15 -10 33 -25 45 -15 12 -25
30 -25 46 0 16 -6 26 -15 26 -8 0 -19 10 -26 21 -6 12 -31 47 -55 79 -24 32
-44 62 -44 67 0 5 -19 32 -43 60 -24 28 -49 66 -56 84 -35 95 -38 99 -78 100
l-38 0 32 16 c35 18 51 47 35 66 -6 7 -17 71 -25 142 -13 122 -11 225 6 252 4
7 3 31 -3 54 -8 30 -8 45 -1 52 6 6 11 24 11 39 0 15 4 28 9 28 6 0 7 23 4 54
-4 34 -2 56 6 60 7 5 9 22 5 45 -7 42 16 91 42 91 9 0 14 12 14 33 0 22 8 41
21 53 13 12 18 25 15 40 -4 13 -2 26 4 29 5 3 10 14 10 25 0 10 7 20 15 24 8
3 15 13 15 23 0 10 9 24 20 31 11 7 20 21 20 32 0 30 39 88 68 102 15 7 28 21
30 30 4 18 68 88 82 88 4 0 24 18 44 40 20 22 39 40 42 40 3 0 24 12 47 28
101 66 113 71 307 133 85 28 169 57 185 64 17 8 49 19 72 25 23 6 49 17 57 26
9 8 33 18 53 20 38 6 70 15 128 39 17 7 46 19 65 26 19 7 37 16 40 19 6 9 83
54 140 82 25 13 51 29 58 36 8 7 27 19 43 27 16 9 29 20 29 25 0 6 5 10 11 10
20 0 130 73 141 94 15 27 39 45 54 39 12 -4 74 23 84 37 3 4 20 15 37 24 18 9
33 21 33 26 0 6 6 10 14 10 21 0 102 38 116 55 7 8 21 15 31 15 11 0 19 3 19
8 0 4 15 13 33 21 17 8 34 17 37 20 14 17 224 114 285 132 39 12 75 25 81 30
11 9 108 35 189 51 28 5 86 18 130 28 44 11 107 22 140 26 33 4 63 12 67 17 3
6 37 9 76 8 39 -1 97 2 129 8 32 6 75 13 95 16 21 3 44 13 53 21 13 13 18 14
31 4 14 -12 87 -10 259 5 22 2 47 5 55 5 8 1 49 6 90 10 41 5 140 12 220 15
80 3 159 8 175 10 17 3 86 7 155 10 69 2 195 8 280 12 288 13 1462 4 1478 -12
3 -3 10 -1 16 4 6 5 30 6 56 1 48 -9 90 -4 90 11 0 14 38 11 42 -3 3 -9 32
-13 89 -14 46 -1 172 -5 279 -8 107 -4 328 -9 490 -11 748 -13 854 -15 990
-21 80 -3 231 -7 335 -9 105 -2 318 -6 475 -9 157 -3 303 -8 325 -10 41 -5
795 -21 875 -18 99 3 134 1 153 -10 16 -8 23 -7 34 8 7 10 13 12 13 6 0 -16
132 -16 148 0 9 9 12 8 12 -4 0 -13 14 -16 78 -17 42 -1 140 -4 217 -8 163 -7
189 -7 230 -3 17 1 55 0 85 -4 30 -4 73 -7 95 -6 22 0 48 1 57 1 10 0 20 4 23
10 4 5 15 5 28 -2 11 -7 44 -11 72 -11 27 1 77 2 110 3 33 1 134 -2 225 -5 91
-4 433 -9 760 -10 560 -4 597 -3 638 14 24 11 42 26 42 35 0 46 -71 71 -225
80 -49 2 -157 10 -240 16 -82 6 -195 12 -250 13 -55 1 -108 6 -118 11 -11 4
-23 3 -30 -4 -14 -14 -50 -14 -63 -1 -6 6 -81 13 -175 15 -90 3 -209 7 -264 9
-56 3 -104 1 -111 -5 -7 -6 -21 -6 -38 1 -38 14 -86 13 -86 -2 0 -7 -5 -5 -11
5 -7 12 -22 17 -52 16 -23 -1 -73 2 -112 5 -38 4 -136 8 -218 10 -81 1 -150 6
-153 9 -10 10 16 45 87 118 35 36 87 92 114 124 28 32 86 96 130 142 44 47 81
91 83 98 2 7 14 17 27 23 14 7 25 16 25 21 0 5 25 35 55 66 30 30 55 60 55 65
0 6 7 10 15 10 8 0 15 7 15 15 0 8 6 15 13 15 11 0 47 34 47 44 0 2 27 32 60
66 33 34 60 69 60 76 0 8 7 14 15 14 8 0 15 9 15 20 0 11 5 20 12 20 12 0 130
119 204 207 23 26 61 71 85 99 24 28 51 61 59 74 8 12 20 28 25 34 43 47 44
115 4 193 -24 47 -43 68 -86 96 -63 42 -79 43 -198 18z m65 -1735 c0 -2 -7 -9
-15 -16 -12 -10 -15 -10 -15 4 0 9 7 16 15 16 8 0 15 -2 15 -4z"/>
<path d="M17751 6165 c-35 -8 -71 -21 -81 -30 -9 -8 -22 -15 -29 -15 -19 0
-63 -49 -55 -62 4 -6 3 -8 -3 -5 -10 6 -63 -37 -63 -52 0 -4 -8 -16 -18 -27
-10 -10 -38 -46 -62 -79 -25 -33 -83 -109 -130 -170 -84 -108 -97 -126 -144
-195 -13 -19 -41 -54 -62 -76 -49 -52 -74 -83 -74 -89 0 -3 -15 -21 -32 -39
-28 -29 -62 -69 -103 -119 -14 -18 -79 -47 -106 -47 -26 0 -89 -21 -89 -30 0
-3 -24 -6 -52 -7 -29 0 -80 -10 -113 -21 -33 -11 -107 -30 -165 -42 -58 -12
-114 -25 -125 -29 -37 -15 -120 -39 -173 -51 -28 -7 -55 -16 -58 -21 -3 -5
-14 -9 -25 -9 -10 0 -19 -6 -19 -14 0 -17 74 -29 133 -21 23 3 94 8 157 10 63
2 147 6 185 9 39 3 138 11 220 17 83 7 166 13 185 14 45 3 223 16 275 20 22 1
105 8 185 14 80 6 217 15 305 21 234 15 277 19 410 36 66 9 170 19 230 24 61
5 160 13 220 19 61 5 151 13 200 17 50 4 106 8 125 9 19 2 74 5 123 7 48 1 87
5 87 8 0 3 33 5 72 6 40 0 150 4 243 7 155 6 606 19 630 18 6 -1 152 -3 325
-5 529 -8 821 -17 905 -26 97 -11 202 -33 232 -48 12 -7 32 -12 44 -12 12 0
30 -6 38 -14 9 -7 41 -23 71 -34 30 -11 98 -41 152 -65 53 -25 134 -55 180
-68 45 -12 97 -29 113 -39 17 -10 53 -23 82 -30 28 -6 109 -32 180 -56 144
-51 154 -54 383 -118 91 -26 199 -57 240 -70 41 -13 100 -29 130 -36 30 -6 69
-16 86 -21 17 -5 39 -7 48 -3 9 3 16 2 16 -4 0 -10 96 -32 155 -37 17 -1 32
-3 35 -5 3 -1 29 -4 59 -6 29 -3 66 -11 82 -19 15 -8 38 -15 50 -15 36 0 116
-89 144 -160 14 -35 25 -70 25 -77 0 -7 4 -21 9 -31 5 -9 15 -36 22 -59 7 -24
16 -43 21 -43 4 0 8 -9 8 -20 0 -17 4 -30 31 -95 4 -11 11 -36 15 -55 3 -19
10 -40 16 -46 5 -7 11 -23 13 -35 3 -13 9 -44 15 -69 5 -25 12 -85 15 -135 2
-49 5 -94 5 -100 3 -32 -12 -242 -21 -310 -16 -119 -40 -269 -44 -275 -2 -3
-6 -28 -9 -55 -6 -49 -43 -191 -55 -210 -8 -14 -30 -96 -31 -117 0 -10 7 -18
15 -18 8 0 15 5 15 10 0 6 16 34 35 63 19 28 35 60 35 70 0 10 11 28 23 40 13
12 27 36 31 52 4 17 13 37 21 45 7 8 15 32 19 52 4 21 14 42 23 46 9 6 14 16
10 25 -6 15 4 87 25 182 18 83 25 560 10 620 -6 22 -13 83 -17 135 -3 52 -10
99 -14 105 -11 15 -41 166 -42 210 0 11 -3 22 -8 25 -8 5 -49 157 -54 202 -2
15 -11 36 -20 46 -9 10 -17 35 -17 55 0 22 -7 43 -19 54 -24 24 -41 57 -41 82
0 11 -9 22 -19 26 -10 3 -22 16 -25 29 -3 13 -16 26 -28 30 -14 3 -31 22 -43
48 -12 27 -28 44 -40 46 -11 2 -30 18 -43 37 -12 19 -27 35 -32 35 -6 0 -10 7
-10 15 0 8 -7 15 -15 15 -8 0 -15 6 -15 14 0 7 -17 26 -37 42 -21 16 -47 36
-57 46 -11 10 -24 18 -29 18 -5 0 -22 14 -37 30 -16 17 -42 33 -59 36 -17 4
-31 12 -31 18 -1 17 -149 84 -205 91 -44 6 -66 13 -140 41 -11 4 -31 8 -45 9
-89 8 -157 18 -170 25 -8 4 -42 11 -75 15 -33 4 -73 11 -90 15 -47 15 -278 39
-309 33 -15 -3 -37 -1 -49 5 -23 11 -97 24 -157 27 -19 1 -66 7 -105 13 -38 6
-117 18 -175 27 -110 16 -191 32 -225 45 -11 4 -30 8 -42 8 -12 0 -42 8 -67
16 -26 9 -60 16 -77 16 -17 0 -40 5 -52 11 -11 7 -44 18 -72 26 -205 59 -265
75 -300 80 -22 3 -49 11 -60 18 -11 8 -41 17 -68 20 -26 4 -50 11 -53 16 -3 5
-18 9 -35 9 -16 0 -29 4 -29 8 0 9 -80 32 -113 32 -13 0 -42 9 -65 20 -22 11
-49 20 -59 20 -10 0 -49 11 -88 24 -38 13 -106 31 -150 41 -44 9 -95 23 -113
31 -18 8 -38 11 -44 8 -5 -4 -20 -2 -31 4 -54 24 -80 32 -110 32 -18 0 -72 13
-122 29 -49 16 -92 28 -96 26 -6 -5 -216 30 -250 40 -11 4 -35 9 -52 11 -18 2
-61 9 -97 15 -36 5 -83 12 -105 14 -122 12 -237 27 -267 35 -18 6 -51 10 -74
10 -22 0 -44 3 -47 7 -4 3 -49 8 -99 10 -83 3 -163 12 -238 28 -14 3 -72 8
-129 11 -57 3 -107 7 -111 9 -4 3 -90 7 -191 10 -140 3 -199 1 -248 -10z m764
-337 c6 -3 51 -9 100 -13 119 -10 133 -12 250 -31 55 -8 125 -18 155 -21 30
-3 60 -9 65 -13 6 -5 33 -8 62 -8 29 -1 60 -5 70 -10 10 -6 32 -12 48 -15 17
-3 44 -10 61 -17 17 -6 35 -10 40 -9 5 1 16 -1 24 -4 42 -18 107 -37 125 -37
12 0 25 -4 30 -9 6 -5 37 -18 70 -30 33 -11 89 -33 125 -50 36 -17 70 -31 75
-31 6 0 22 -13 38 -29 l27 -28 -67 -11 c-88 -15 -343 -39 -493 -47 -102 -6
-486 -26 -640 -34 -91 -5 -214 -7 -275 -6 -60 1 -140 3 -176 4 -65 1 -66 1
-76 34 -8 26 -7 40 4 61 16 31 10 78 -15 102 -13 14 -14 24 -4 73 7 32 12 76
12 100 0 55 20 74 84 81 71 7 269 6 281 -2z"/>
<path d="M19905 4849 c-38 -3 -128 -12 -198 -18 -70 -7 -138 -16 -151 -20 -12
-5 -48 -12 -79 -16 -32 -4 -60 -11 -63 -16 -3 -5 -17 -9 -31 -9 -27 0 -84 -16
-115 -31 -10 -5 -23 -9 -30 -9 -15 0 -123 -42 -183 -71 -22 -10 -48 -19 -57
-19 -10 0 -18 -4 -18 -10 0 -5 -6 -10 -13 -10 -23 0 -142 -65 -140 -77 1 -6
-6 -9 -16 -6 -21 5 -81 -22 -81 -37 0 -6 -7 -10 -17 -10 -9 0 -31 -11 -49 -25
-18 -14 -37 -25 -43 -25 -6 0 -11 -4 -11 -10 0 -5 -5 -10 -10 -10 -12 0 -110
-70 -150 -107 -14 -13 -29 -23 -33 -23 -8 0 -58 -47 -207 -193 -109 -107 -233
-248 -260 -296 -8 -14 -18 -27 -22 -29 -5 -2 -8 -11 -8 -20 0 -10 -9 -23 -19
-29 -10 -7 -32 -38 -47 -70 -35 -72 -126 -198 -160 -219 -19 -13 -41 -16 -100
-12 -41 3 -80 10 -87 17 -6 6 -35 11 -64 11 -29 0 -72 6 -95 14 -24 8 -70 17
-103 19 -33 3 -96 11 -140 17 -44 7 -102 14 -130 16 -27 2 -85 8 -128 13 -43
6 -122 13 -175 17 -53 3 -110 7 -127 9 -87 8 -334 25 -430 30 -60 3 -136 7
-167 9 -32 2 -58 -1 -58 -6 0 -5 -10 -3 -22 3 -12 6 -49 13 -82 14 -34 2 -144
7 -246 11 -102 4 -203 8 -225 9 -36 2 -175 6 -645 21 -91 2 -228 7 -305 9 -77
3 -158 4 -180 4 -110 -5 -320 -3 -397 3 -77 6 -88 5 -88 -9 0 -13 -3 -13 -15
-3 -10 8 -49 12 -118 11 -56 0 -302 -3 -547 -5 -245 -2 -447 -4 -450 -5 -3 -1
-180 -3 -395 -6 -397 -5 -485 -10 -485 -26 0 -5 -7 -9 -15 -9 -8 0 -15 5 -15
11 0 8 -60 9 -213 4 -117 -3 -232 -8 -257 -10 -54 -5 -186 -13 -420 -25 -326
-17 -480 -38 -480 -66 0 -18 56 -33 115 -30 28 1 63 -2 79 -6 16 -4 34 -4 40
-1 9 6 479 13 721 11 50 0 97 0 105 0 88 5 2537 12 2698 8 84 -2 102 0 102 12
0 12 2 12 17 1 12 -11 58 -14 192 -15 160 0 266 -5 466 -19 64 -4 340 -17 375
-17 8 0 87 -4 175 -10 88 -5 196 -11 239 -14 44 -2 123 -11 175 -19 53 -8 123
-17 156 -19 33 -3 87 -10 120 -15 33 -6 89 -15 125 -21 36 -5 103 -15 150 -21
47 -6 96 -15 110 -21 14 -6 41 -12 60 -15 19 -2 60 -8 90 -14 30 -5 67 -12 82
-13 14 -2 41 -8 60 -14 18 -5 78 -17 133 -27 55 -9 108 -21 117 -26 10 -5 26
-9 37 -9 24 0 207 -47 241 -61 14 -6 39 -17 55 -24 107 -44 141 -64 180 -100
54 -50 78 -95 109 -211 13 -50 28 -100 34 -110 5 -11 7 -25 5 -32 -3 -7 0 -18
6 -25 6 -7 16 -49 24 -93 8 -43 21 -93 30 -110 9 -17 18 -42 21 -55 15 -85 19
-100 27 -105 5 -3 7 -10 4 -15 -4 -5 3 -21 14 -35 12 -15 21 -31 21 -36 0 -18
39 -50 57 -46 23 4 32 86 11 99 -8 5 -9 9 -2 9 10 0 20 67 30 195 6 69 17 141
24 150 4 6 11 39 14 74 4 35 11 71 15 80 5 9 19 50 31 91 12 41 38 107 56 147
19 39 34 74 34 78 0 4 8 19 19 33 10 15 22 38 26 52 4 14 18 39 31 57 13 17
24 34 24 38 0 3 17 29 39 58 21 29 46 66 54 82 9 17 26 42 39 56 13 15 41 49
63 75 61 72 215 226 260 258 22 16 45 34 50 40 6 6 30 27 55 46 25 19 51 40
58 47 7 7 19 13 26 13 7 0 21 8 32 18 17 16 74 55 129 89 11 7 36 20 55 30 19
9 37 20 40 24 5 7 56 34 118 63 17 8 32 20 32 25 0 6 8 11 18 11 9 0 42 9 72
21 30 11 96 34 145 51 50 17 99 35 110 39 71 32 278 80 410 95 358 42 613 23
980 -75 17 -5 62 -21 100 -36 39 -15 106 -41 150 -58 44 -17 91 -38 105 -47
14 -9 51 -29 83 -44 31 -15 63 -33 70 -41 15 -14 100 -55 116 -55 6 0 11 -4
11 -9 0 -4 42 -41 94 -80 52 -40 97 -79 100 -87 3 -8 12 -14 20 -14 14 0 171
-150 264 -253 24 -26 47 -47 52 -47 6 0 10 -7 10 -16 0 -14 40 -76 64 -99 16
-15 76 -102 76 -110 0 -4 14 -24 30 -45 17 -21 30 -41 30 -44 0 -9 43 -70 53
-74 4 -2 7 -12 7 -22 0 -10 5 -22 10 -25 12 -7 94 -171 103 -204 8 -32 27 -25
27 10 0 31 -26 148 -41 184 -13 32 -49 135 -71 205 -11 36 -29 71 -39 79 -11
7 -19 23 -19 35 0 12 -4 26 -9 31 -6 6 -35 60 -66 120 -31 61 -69 126 -83 145
-15 19 -31 42 -37 51 -39 63 -111 157 -187 244 -35 39 -206 210 -234 234 -16
13 -54 42 -84 65 -30 23 -61 47 -68 54 -7 6 -19 12 -25 12 -7 0 -17 8 -23 18
-6 10 -30 26 -53 37 -22 11 -41 23 -41 27 0 10 -60 38 -80 38 -10 0 -20 6 -23
14 -5 12 -146 86 -164 86 -4 0 -14 6 -22 14 -9 7 -38 21 -66 31 -27 10 -63 23
-80 30 -45 20 -247 85 -262 85 -7 0 -21 4 -31 9 -9 5 -47 15 -84 24 -57 12
-68 12 -68 1 0 -8 -5 -14 -11 -14 -6 0 -9 7 -5 15 4 10 -1 15 -15 15 -11 0
-28 4 -38 9 -17 9 -104 17 -286 26 -192 10 -242 10 -310 4z m-8355 -1299 c0
-5 -5 -10 -11 -10 -5 0 -7 5 -4 10 3 6 8 10 11 10 2 0 4 -4 4 -10z"/>
<path d="M3920 4419 c-58 -5 -114 -9 -125 -9 -28 -1 -211 -38 -265 -54 -190
-58 -395 -129 -414 -145 -6 -5 -26 -12 -44 -16 -18 -4 -36 -13 -39 -21 -3 -8
-11 -14 -18 -14 -7 0 -30 -9 -52 -20 -21 -10 -56 -27 -78 -38 -22 -10 -66 -33
-98 -50 -31 -18 -65 -32 -73 -32 -11 0 -15 -6 -11 -19 3 -14 1 -18 -9 -14 -16
6 -80 -22 -91 -40 -4 -7 -24 -20 -43 -30 -46 -23 -173 -133 -182 -156 -3 -10
-18 -21 -32 -25 -27 -7 -174 -147 -221 -211 -16 -22 -37 -48 -47 -58 -10 -10
-18 -27 -18 -37 0 -12 -7 -20 -17 -20 -11 0 -29 -20 -45 -48 -15 -26 -39 -65
-53 -87 -14 -22 -28 -47 -32 -55 -3 -8 -14 -26 -23 -40 -32 -46 -91 -168 -89
-181 2 -8 -9 -39 -24 -69 -34 -71 -87 -243 -94 -300 -2 -25 -7 -72 -10 -105
-3 -33 -9 -64 -14 -69 -5 -6 -9 -30 -9 -55 -1 -26 -5 -66 -10 -91 -5 -26 -4
-52 1 -61 6 -12 4 -19 -7 -23 -12 -5 -14 -13 -8 -34 7 -28 17 -221 15 -302 -1
-73 9 -130 23 -130 14 0 26 27 31 65 1 11 7 32 13 47 7 18 8 47 1 93 -6 47 -6
72 2 81 6 7 15 37 19 66 19 112 22 124 30 143 4 11 16 54 25 95 9 41 25 98 36
125 10 28 19 57 19 66 0 8 4 19 9 25 6 5 33 56 62 114 28 58 60 117 70 132 11
14 19 33 19 41 0 8 15 32 34 53 19 22 37 53 41 70 3 20 14 35 30 42 13 6 32
24 42 39 26 42 67 91 139 165 35 37 64 72 64 78 0 6 11 15 25 20 14 5 30 21
37 35 6 14 15 25 19 25 5 0 21 12 37 28 15 15 67 56 115 91 48 36 87 69 87 73
0 4 6 8 13 8 6 0 57 29 112 65 55 36 147 88 205 117 58 29 107 56 108 60 2 4
14 8 27 8 12 0 49 12 81 27 33 14 77 29 99 33 22 4 67 17 100 28 403 137 966
142 1410 11 112 -33 395 -161 395 -179 0 -6 9 -10 20 -10 11 0 28 -9 37 -20
10 -11 21 -20 25 -20 11 0 113 -79 198 -154 41 -36 78 -66 82 -66 5 0 8 -4 8
-10 0 -5 8 -19 18 -30 9 -11 40 -47 67 -79 53 -63 88 -76 119 -46 8 8 24 15
35 15 15 0 21 6 21 22 0 30 -52 138 -67 138 -6 0 -15 9 -18 20 -3 11 -11 20
-16 20 -5 0 -9 6 -9 14 0 8 -8 21 -19 28 -10 7 -22 28 -25 46 -6 24 -13 32
-30 32 -14 0 -28 11 -40 33 -11 17 -32 44 -48 58 -15 14 -28 30 -28 35 0 6
-12 20 -27 32 -16 12 -62 50 -103 83 -41 33 -97 80 -124 105 -26 24 -53 44
-58 44 -5 0 -21 9 -35 20 -14 11 -36 20 -49 20 -14 0 -24 6 -24 15 0 14 -59
59 -115 87 -16 8 -39 19 -50 25 -11 6 -36 18 -55 26 -69 29 -95 42 -100 48 -8
9 -159 61 -224 76 -227 53 -486 77 -666 62z"/>
<path d="M23587 3896 c-61 -35 -71 -69 -68 -236 2 -159 7 -235 15 -249 4 -5 1
-11 -6 -13 -9 -3 -9 -17 -1 -59 7 -30 12 -98 13 -151 1 -122 28 -222 63 -232
12 -3 29 -6 39 -6 23 0 88 66 88 89 0 11 4 22 9 25 5 3 10 21 10 38 1 18 2 44
3 58 0 24 -8 249 -18 495 -3 61 -8 119 -13 130 -5 11 -14 38 -21 60 -22 69
-56 84 -113 51z"/>
<path d="M8337 3614 c-1 -1 -58 -4 -127 -7 -69 -4 -177 -11 -240 -17 -257 -24
-300 -30 -300 -43 0 -10 -50 -123 -125 -282 -37 -78 -61 -139 -79 -202 -6 -23
-18 -50 -26 -60 -21 -25 -40 -61 -40 -73 0 -5 8 -10 18 -11 11 -1 8 -4 -8 -8
-14 -5 -29 -4 -35 1 -5 4 -17 8 -27 8 -13 0 -18 8 -18 30 0 23 -4 30 -20 30
-18 0 -20 7 -20 55 0 30 -4 55 -8 55 -5 0 -16 17 -25 38 -9 20 -30 61 -46 89
-16 29 -32 66 -36 83 -4 17 -15 36 -26 43 -10 6 -19 17 -19 24 0 6 -13 38 -29
70 -17 32 -32 71 -36 86 -6 31 -33 47 -45 28 -9 -15 16 -139 31 -157 6 -7 8
-18 4 -24 -8 -12 13 -110 23 -110 4 0 8 -21 10 -47 1 -25 6 -51 11 -57 5 -6
11 -29 14 -51 5 -44 35 -168 47 -200 13 -35 42 -153 57 -239 2 -11 7 -24 12
-30 9 -12 21 -68 36 -176 12 -84 42 -184 58 -194 22 -14 70 11 76 39 2 11 12
28 23 39 11 11 18 26 15 37 -3 12 0 19 9 19 8 0 14 7 14 15 0 8 4 15 10 15 5
0 12 15 16 34 3 19 12 37 20 40 8 3 14 15 14 26 0 11 5 20 10 20 6 0 10 9 10
20 0 11 7 23 15 26 8 4 15 12 15 20 0 8 11 32 25 54 14 22 25 46 25 55 0 8 4
15 10 15 5 0 13 12 16 27 4 15 16 36 26 47 10 11 18 28 18 38 0 10 4 18 8 18
5 0 16 24 25 54 10 30 24 59 32 66 8 7 15 18 15 25 0 7 7 18 15 25 9 8 13 21
9 35 -4 17 0 27 15 37 12 7 31 32 42 55 17 35 28 45 61 54 23 6 62 9 87 8 25
-1 57 1 71 4 14 4 99 10 190 13 91 3 176 6 190 6 14 1 112 0 219 -2 140 -2
195 1 201 9 5 9 24 7 74 -9 37 -12 87 -23 112 -24 24 0 44 -4 44 -7 0 -4 20
-16 45 -28 25 -12 45 -24 45 -29 -1 -16 -27 -52 -72 -102 -27 -28 -48 -54 -48
-58 0 -4 -14 -18 -31 -32 -29 -24 -71 -63 -217 -201 -34 -32 -64 -59 -66 -59
-2 0 -39 -34 -83 -76 -43 -42 -88 -83 -100 -91 -27 -18 -30 -43 -5 -43 9 0 33
10 52 22 19 12 58 33 85 47 28 13 64 35 81 48 17 13 34 23 38 23 4 0 22 11 40
25 18 14 36 25 40 25 7 0 218 152 248 179 39 35 78 76 78 82 0 4 10 10 23 13
25 7 97 71 97 87 0 14 20 32 53 46 15 7 27 18 27 25 0 7 18 30 39 53 75 77
110 167 76 195 -8 7 -15 19 -15 27 0 7 -8 17 -17 20 -10 4 -37 20 -59 35 -23
15 -53 28 -67 28 -14 0 -27 5 -29 11 -5 14 -78 40 -95 34 -6 -2 -13 0 -15 5
-2 5 -23 11 -48 14 -25 2 -62 10 -84 16 -23 7 -41 8 -45 2 -3 -5 -16 -11 -27
-14 -17 -4 -20 -2 -17 12 5 20 -30 30 -111 30 -28 0 -78 5 -111 10 -51 8 -460
21 -468 14z"/>
<path d="M944 3163 c-56 -72 -83 -118 -94 -163 -6 -25 -20 -67 -30 -95 -11
-27 -22 -64 -25 -81 -2 -17 -12 -47 -20 -67 -18 -42 -20 -143 -4 -153 8 -5 7
-9 -4 -15 -12 -7 -14 -27 -12 -101 3 -114 14 -216 25 -243 11 -28 31 -105 34
-137 2 -15 11 -38 20 -52 9 -14 16 -34 16 -44 0 -22 15 -36 47 -46 18 -6 25 1
48 48 15 30 25 61 22 68 -2 7 4 24 14 37 11 13 19 32 19 42 0 10 4 20 9 23 10
6 20 58 24 119 1 21 9 42 17 47 10 6 16 28 17 62 5 110 12 169 21 181 5 7 10
50 10 97 0 52 4 86 11 88 15 5 14 22 -3 41 -12 13 -12 24 -3 58 9 35 8 48 -5
75 -9 21 -12 40 -7 53 13 33 10 92 -5 104 -8 7 -17 23 -20 36 -4 14 -13 25
-22 25 -8 0 -17 7 -20 15 -11 28 -49 17 -80 -22z"/>
</g>
</svg>
